<svg id="2c45e3e2-d06f-4dc0-bb2d-853363bc06af" data-name="图层 1" xmlns="http://www.w3.org/2000/svg" width="985.17" height="980.77" viewBox="0 0 985.17 980.77">
  <defs>
    <style>
      .db5d144c-fd9c-41d7-84d9-3dd6346140d8 {
        fill: #fff;
      }
    </style>
  </defs>
  <title>人 [转换]</title>
  <g>
    <path class="db5d144c-fd9c-41d7-84d9-3dd6346140d8" d="M1004.12,897.39l-16-155.93c-2.71-27.09-22.19-52.85-50.87-67.29-47.78-20.89-143.58-59.66-250.33-85.54L668,584l12.94-14.56c42.41-47.7,93-79.76,93-259.06C775.13,208.58,751,131.94,702.18,82.48,658.12,37.86,594.74,15.23,513.82,15.23,393.74,15.23,250.59,67,250.59,313.62c0,179.28,50.55,211.35,93,259.06l12.95,14.56-18.94,4.59c-107,25.93-202.93,64.8-250.62,85.66l-.34.15C60.82,688,42.48,711.51,36.24,742.3l-15.91,155c-3,27.45,3.93,51.84,19,67l.61.67C57.41,985.25,79.76,996,104.62,996h815.2c24.86,0,47.21-10.75,64.63-31.07C1000,946.76,1007.19,922.16,1004.12,897.39Zm-37.43,8c0,10.7,0,24-9.82,33.85C952,944.13,939,955.48,923,955.48H107.82c-14.84,0-26.81-5.9-34.68-17.06a36.61,36.61,0,0,1-8.74-35.63L80.33,747.61l.15-.57c4.32-17.28,13.66-29.21,26.32-33.66,32.81-14.06,131.08-56.09,244.42-83.56l.46-.11,47.65-9.53a23.64,23.64,0,0,0,16.59-16c2.62-8,1.25-16.4-3.66-22.43l-31.78-35c-55.8-62.37-82.92-96.48-83-232.82-5.11-89.69,12.91-157,53.58-200.1,36.39-38.55,91.14-58.1,162.73-58.1,76.38,0,131.44,20.81,168.31,63.61,36.6,42.49,54.39,106,54.39,194.26,0,132.32-28.66,172.06-82.88,233L621.2,582.34a19.52,19.52,0,0,0-5,19.66,26.36,26.36,0,0,0,18.48,18.18l47.85,9.58C779.67,651,873.34,688.07,924.4,713.52c13.8,5.09,25.76,21.2,26.29,35.38l16,155.65Z" transform="translate(-19.64 -15.23)"/>
    <polygon class="db5d144c-fd9c-41d7-84d9-3dd6346140d8" points="475.55 594.77 421.81 856.88 495.21 901.44 563.36 856.88 508.31 594.77 475.55 594.77"/>
  </g>
</svg>
