<?xml version="1.0" standalone="no"?><!DOCTYPE svg PUBLIC "-//W3C//DTD SVG 1.1//EN" "http://www.w3.org/Graphics/SVG/1.1/DTD/svg11.dtd"><svg t="1616724661644" class="icon" viewBox="0 0 1024 1024" version="1.1" xmlns="http://www.w3.org/2000/svg" p-id="2317" xmlns:xlink="http://www.w3.org/1999/xlink" width="16" height="16"><defs><style type="text/css"></style></defs><path d="M317.7 362.3c86.4-47.3 89.5-143.7 89.6-147.8 0-71.5 50.5-130.1 112.6-130.1 27.1 0 54 12.8 75.7 35.9 24.9 26.7 39.1 63.6 36.9 96.3-3.1 46.2 0 136.2 0 137.1 0 3.4 2 5.3 4.5 5.3h135.5c73.4 0 128.7 55.3 128.7 128.7 0 65.9-83.1 244.3-92.5 264.5-5.3 11.7-54.9 117.8-126.3 117.8l-314.5-1.8c-30.7-0.3-55.5-25.4-55.5-56V410.6m51.4-16.5v418.2c0 2.5 1.9 4.5 4.4 4.5l314.2 1.8c27.1 0 63.4-52.4 79.3-87.8 34.1-72.4 87.8-202 87.8-243 0-45.4-31.7-77.2-77.2-77.2H636.9c-30.8 0-55.9-25.1-55.9-55.9-0.1-2.9-3.2-92.7 0.1-141.5 1.3-18.8-7.8-41.4-23.1-57.7-43.2-46.1-99.2-0.7-99.2 59.4-0.1 5.3-2.8 114.3-95 179.2z" fill="#828282" p-id="2318"></path><path d="M370.2 867.6h-78.7c-72.6 0-131.7-56.7-131.7-126.3V487.8c0-71 57.7-128.7 128.7-128.7h29c14.2 0 25.7 11.5 25.7 25.7s-11.5 25.7-25.7 25.7h-29c-42.6 0-77.2 34.6-77.2 77.2v253.5c0 41.2 36 74.8 80.2 74.8h78.7c14.2 0 25.7 11.5 25.7 25.7 0 14.4-11.5 25.9-25.7 25.9z" fill="#828282" p-id="2319"></path></svg>