<?xml version="1.0" standalone="no"?><!DOCTYPE svg PUBLIC "-//W3C//DTD SVG 1.1//EN" "http://www.w3.org/Graphics/SVG/1.1/DTD/svg11.dtd"><svg t="1616725038294" class="icon" viewBox="0 0 1024 1024" version="1.1" xmlns="http://www.w3.org/2000/svg" p-id="2448" xmlns:xlink="http://www.w3.org/1999/xlink" width="16" height="16"><defs><style type="text/css"></style></defs><path d="M902.272 827.52a124.8 124.8 0 0 1-92.992-120.832V393.6c0-140.8-92.032-259.904-218.624-299.264A93.12 93.12 0 0 0 499.392 17.92c-45.44 0-83.072 32.896-91.2 76.416A312.832 312.832 0 0 0 189.568 393.6v313.088c0 58.24-39.68 106.816-92.992 120.768 0 0-30.976 8.832-30.976 35.776 0 17.28 13.824 31.296 30.976 31.296h278.912c0 69.12 55.488 125.248 123.904 125.248 68.48 0 123.968-56.128 123.968-125.248h278.912a31.168 31.168 0 0 0 30.976-31.36c0-27.328-30.976-35.712-30.976-35.712z m-402.88 129.6a62.272 62.272 0 0 1-61.952-62.592h123.968c0 34.56-27.776 62.592-62.016 62.592z m-295.552-125.248a187.84 187.84 0 0 0 47.68-125.184V393.6a250.496 250.496 0 0 1 166.912-236.48c16-5.632 32.768-9.472 49.984-11.712v-33.6c0-17.28 13.888-31.36 30.976-31.36 17.152 0 31.04 14.08 31.04 31.36v33.6c17.28 2.24 33.984 6.08 49.92 11.712a250.496 250.496 0 0 1 167.04 236.48v313.088c0 47.488 17.728 91.712 47.552 125.184H203.84z" fill="#454545" p-id="2449"></path></svg>